<?xml version="1.0" encoding="UTF-8"?><svg id="Layer_2" xmlns="http://www.w3.org/2000/svg" viewBox="0 0 91.65 33.39"><defs><style>.cls-1{fill:#f4c892;}.cls-2{fill:#d7677c;}</style></defs><g id="Layer_1-2"><g><g><path class="cls-1" d="M18.1,32.74V13.85c0-1.27-.16-2.21-.47-2.81-.29-.55-.76-.81-1.46-.81-.84,0-1.45,.33-1.88,1.01-.45,.71-.67,1.65-.67,2.81v18.7h-4.45V13.85c0-1.27-.16-2.21-.47-2.81-.29-.55-.76-.81-1.46-.81-.84,0-1.45,.33-1.88,1.01-.45,.71-.67,1.65-.67,2.81v18.7H.25V6.57H4.7v2.06c.34-.56,.76-1.05,1.27-1.47,.79-.65,1.81-.99,3.02-.99s2.22,.31,2.89,.91c.54,.49,.96,1.2,1.25,2.13,.43-.81,.99-1.48,1.67-2.02,.86-.68,1.91-1.02,3.12-1.02s2.17,.3,2.85,.89c.67,.58,1.14,1.49,1.4,2.68,.25,1.16,.38,2.74,.38,4.69v18.3h-4.45Z"/><path class="cls-2" d="M17.92,6.42c1.16,0,2.05,.28,2.69,.83,.63,.55,1.07,1.4,1.32,2.55,.25,1.15,.38,2.69,.38,4.64v18.05h-3.95V13.85c0-1.32-.17-2.29-.49-2.92s-.89-.95-1.68-.95c-.92,0-1.62,.38-2.09,1.13-.47,.75-.71,1.73-.71,2.94v18.45h-3.95V13.85c0-1.32-.17-2.29-.49-2.92-.33-.63-.89-.95-1.68-.95-.92,0-1.62,.38-2.09,1.13-.47,.75-.71,1.73-.71,2.94v18.45H.5V6.82h3.95v2.88c.37-.95,.93-1.73,1.68-2.35,.75-.62,1.7-.93,2.86-.93s2.09,.28,2.73,.85c.63,.57,1.08,1.46,1.34,2.67,.45-1.05,1.08-1.9,1.9-2.55,.82-.65,1.8-.97,2.96-.97m0-.5c-1.27,0-2.37,.36-3.27,1.08-.57,.45-1.06,.99-1.46,1.62-.29-.72-.67-1.3-1.14-1.72-.72-.65-1.75-.98-3.06-.98s-2.34,.35-3.18,1.04c-.32,.26-.6,.55-.86,.87v-1.52H0v26.67H4.95V14.05c0-1.11,.21-2.01,.63-2.68,.38-.61,.92-.89,1.67-.89,.6,0,.99,.22,1.24,.68,.29,.56,.44,1.46,.44,2.69v19.14h4.95V14.05c0-1.11,.21-2.01,.63-2.68,.38-.61,.92-.89,1.67-.89,.6,0,.99,.22,1.23,.68,.29,.56,.44,1.46,.44,2.69v19.14h4.95V14.44c0-1.97-.13-3.57-.39-4.75-.27-1.25-.77-2.2-1.48-2.82-.72-.63-1.74-.95-3.01-.95h0Z"/></g><g><path class="cls-1" d="M33.16,33.14c-2.47,0-4.3-.78-5.45-2.31-1.13-1.51-1.71-3.91-1.71-7.14V15.63c0-3.23,.58-5.63,1.71-7.14,1.15-1.53,2.99-2.31,5.45-2.31s4.25,.78,5.36,2.32c1.09,1.51,1.65,3.91,1.65,7.14v4.87h-9.72v3.78c0,1.86,.23,3.15,.67,3.83,.43,.65,1.1,.97,2.04,.97s1.55-.31,1.94-.95c.41-.67,.62-1.97,.62-3.86v-2.11h4.45v1.51c0,3.23-.55,5.63-1.65,7.14-1.11,1.54-2.91,2.32-5.36,2.32Zm2.55-15.9v-2.2c0-1.89-.21-3.19-.63-3.86-.4-.64-1.03-.95-1.92-.95-.95,0-1.61,.32-2.04,.97-.44,.68-.67,1.97-.67,3.83v2.2h5.27Z"/><path class="cls-2" d="M33.16,6.42c2.37,0,4.09,.74,5.15,2.21,1.07,1.48,1.6,3.81,1.6,6.99v4.62h-9.72v4.03c0,1.92,.24,3.25,.71,3.97,.47,.72,1.22,1.09,2.25,1.09s1.72-.36,2.15-1.07,.65-2.04,.65-3.99v-1.86h3.95v1.26c0,3.19-.53,5.52-1.6,6.99-1.07,1.48-2.78,2.21-5.15,2.21s-4.15-.74-5.25-2.21c-1.11-1.47-1.66-3.8-1.66-6.99V15.63c0-3.19,.55-5.52,1.66-6.99,1.11-1.47,2.86-2.21,5.25-2.21m-2.96,11.06h5.77v-2.45c0-1.95-.22-3.28-.67-3.99-.45-.71-1.16-1.07-2.13-1.07-1.03,0-1.78,.36-2.25,1.09-.47,.72-.71,2.05-.71,3.97v2.45m2.96-11.56c-2.55,0-4.45,.81-5.65,2.41-1.17,1.56-1.76,4.01-1.76,7.29v8.06c0,3.28,.59,5.73,1.76,7.29,1.2,1.6,3.1,2.41,5.65,2.41s4.4-.81,5.56-2.42c1.12-1.55,1.69-4,1.69-7.28v-1.76h-4.95v2.36c0,2.3-.31,3.3-.58,3.73-.34,.56-.9,.83-1.73,.83s-1.45-.28-1.83-.86c-.29-.44-.63-1.44-.63-3.7v-3.53h9.72v-5.12c0-3.28-.57-5.73-1.69-7.28-1.16-1.61-3.03-2.42-5.56-2.42h0Zm-2.46,11.06v-1.95c0-2.26,.34-3.26,.63-3.7,.38-.58,.98-.86,1.83-.86,.8,0,1.36,.27,1.71,.83,.27,.43,.59,1.43,.59,3.72v1.95h-4.77Z"/></g><g><path class="cls-1" d="M43.62,32.74V6.57h4.45v26.17h-4.45Zm2.23-28.04c-.64,0-1.21-.22-1.69-.66-.49-.44-.73-.97-.73-1.57s.24-1.16,.71-1.59c.47-.42,1.04-.64,1.71-.64s1.24,.21,1.71,.64c.47,.43,.71,.96,.71,1.59s-.25,1.13-.73,1.57c-.48,.44-1.05,.66-1.69,.66Z"/><path class="cls-2" d="M45.84,.5c.61,0,1.12,.19,1.54,.57,.42,.38,.63,.85,.63,1.4s-.22,.99-.65,1.38-.94,.59-1.52,.59-1.09-.2-1.52-.59c-.43-.4-.65-.86-.65-1.38,0-.55,.21-1.02,.63-1.4,.42-.38,.93-.57,1.54-.57m1.98,6.32v25.67h-3.95V6.82h3.95m-1.98-6.82c-.73,0-1.36,.24-1.88,.7-.53,.48-.8,1.08-.8,1.77s.27,1.26,.82,1.75c.53,.48,1.15,.72,1.86,.72s1.33-.24,1.86-.72c.54-.49,.82-1.08,.82-1.75s-.27-1.29-.8-1.77c-.52-.47-1.15-.7-1.88-.7h0Zm2.48,6.32h-4.95v26.67h4.95V6.32h0Z"/></g><g><path class="cls-1" d="M61.23,32.74V13.85c0-1.23-.2-2.17-.59-2.77-.38-.57-.98-.85-1.84-.85-.95,0-1.64,.33-2.1,1.02-.48,.71-.73,1.65-.73,2.8v18.7h-4.45V.65h4.45V8.71c.36-.56,.81-1.07,1.35-1.51,.82-.68,1.9-1.03,3.22-1.03,1.88,0,3.23,.67,4.01,2,.76,1.28,1.14,3.39,1.14,6.27v18.3h-4.45Z"/><path class="cls-2" d="M55.72,.9V9.7c.39-.9,.98-1.67,1.76-2.31,.78-.65,1.8-.97,3.06-.97,1.79,0,3.05,.63,3.79,1.88,.74,1.25,1.11,3.3,1.11,6.14v18.05h-3.95V13.85c0-1.29-.21-2.26-.63-2.9-.42-.65-1.11-.97-2.05-.97-1.03,0-1.8,.38-2.31,1.13-.51,.75-.77,1.73-.77,2.94v18.45h-3.95V.9h3.95m.5-.5h-4.95V32.99h4.95V14.05c0-1.1,.23-2,.68-2.66,.42-.61,1.04-.91,1.9-.91,.77,0,1.31,.24,1.64,.74,.37,.56,.55,1.44,.55,2.63v19.14h4.95V14.44c0-2.96-.38-5.05-1.18-6.4-.83-1.41-2.25-2.12-4.22-2.12-1.38,0-2.51,.36-3.38,1.08-.35,.29-.66,.6-.94,.94V.4h0Z"/></g><g><path class="cls-1" d="M74.28,33.14c-1.88,0-3.23-.67-4.01-2-.76-1.28-1.14-3.39-1.14-6.27V6.57h4.45V25.46c0,1.24,.2,2.17,.59,2.77,.38,.58,.98,.85,1.84,.85,.95,0,1.64-.33,2.1-1.02,.48-.71,.73-1.65,.73-2.8V6.57h4.45V28.7c0,.96,.02,1.69,.06,2.17,.04,.47,.15,.99,.33,1.54l.1,.33h-4l-.07-.07c-.3-.3-.52-.76-.66-1.41-.06-.27-.11-.52-.14-.77-.37,.6-.85,1.15-1.41,1.62-.82,.68-1.9,1.02-3.22,1.02Z"/><path class="cls-2" d="M83.05,6.82V28.7c0,.97,.02,1.71,.06,2.19,.04,.49,.15,1.02,.34,1.6h-3.55c-.26-.26-.46-.69-.59-1.28-.13-.59-.2-1.13-.2-1.6-.4,.9-.98,1.67-1.76,2.31-.78,.64-1.8,.97-3.06,.97-1.79,0-3.05-.63-3.79-1.88-.74-1.25-1.11-3.3-1.11-6.14V6.82h3.95V25.46c0,1.29,.21,2.26,.63,2.9,.42,.65,1.11,.97,2.05,.97,1.03,0,1.8-.38,2.31-1.13,.51-.75,.77-1.73,.77-2.94V6.82h3.95m.5-.5h-4.95V25.27c0,1.1-.23,2-.68,2.66-.42,.61-1.04,.91-1.9,.91-.78,0-1.31-.24-1.63-.74-.37-.56-.55-1.44-.55-2.63V6.32h-4.95V24.87c0,2.96,.38,5.06,1.18,6.4,.83,1.41,2.25,2.12,4.22,2.12,1.38,0,2.51-.36,3.38-1.08,.42-.35,.79-.74,1.11-1.16,.01,.06,.02,.11,.04,.17,.15,.7,.39,1.2,.73,1.53l.15,.15h4.45l-.21-.65c-.17-.54-.28-1.04-.31-1.49-.04-.47-.06-1.19-.06-2.15V6.32h0Z"/></g><g><path class="cls-1" d="M86.75,32.74V6.57h4.45v26.17h-4.45Zm2.22-28.04c-.64,0-1.21-.22-1.69-.66-.49-.44-.73-.97-.73-1.57s.24-1.16,.71-1.59c.47-.42,1.04-.64,1.71-.64s1.24,.21,1.71,.64c.47,.43,.71,.96,.71,1.59s-.25,1.13-.73,1.57c-.48,.44-1.05,.66-1.69,.66Z"/><path class="cls-2" d="M88.97,.5c.61,0,1.12,.19,1.54,.57,.42,.38,.63,.85,.63,1.4s-.22,.99-.65,1.38-.94,.59-1.52,.59-1.09-.2-1.52-.59-.65-.86-.65-1.38c0-.55,.21-1.02,.63-1.4,.42-.38,.93-.57,1.54-.57m1.98,6.32v25.67h-3.95V6.82h3.95m-1.98-6.82c-.73,0-1.36,.24-1.88,.7-.53,.48-.8,1.08-.8,1.77s.27,1.26,.82,1.75c.53,.48,1.15,.72,1.86,.72s1.33-.24,1.86-.72c.54-.49,.82-1.08,.82-1.75s-.27-1.29-.8-1.77c-.52-.47-1.15-.7-1.88-.7h0Zm2.48,6.32h-4.95v26.67h4.95V6.32h0Z"/></g></g></g></svg>