<?xml version="1.0" encoding="UTF-8"?><svg id="Layer_2" xmlns="http://www.w3.org/2000/svg" viewBox="0 0 46.58 28.16"><defs><style>.cls-1{fill:#7bcbbc;}</style></defs><g id="Layer_1-2"><g><path class="cls-1" d="M10.12,8.26c3.2-.47,6.33-1.28,9.39-2.26,.6-.18,.3-1.12-.29-.92C13.16,6.96,6.83,8.11,.53,7.48c-.26-.03-.5,.16-.53,.43-.03,.27,.16,.5,.43,.53,3.22,.35,6.49,.28,9.69-.19Z"/><path class="cls-1" d="M12.93,5.94l.36-1.45c.15-.53-.63-.85-.9-.36l-.8,1.15c-.71,1,.99,1.83,1.34,.66Z"/><path class="cls-1" d="M6.54,6.34c.08,.18,.26,.29,.44,.29,.07,0,.13-.01,.2-.04,.24-.11,.35-.39,.25-.64-.23-.52-.52-1.04-.85-1.53-.15-.22-.45-.28-.67-.13-.22,.15-.28,.45-.13,.67,.3,.45,.56,.92,.77,1.39Z"/><path class="cls-1" d="M20.14,15.94c-3.32,.78-6.57,1.79-9.79,2.91,.13-.56,.24-1.14,.34-1.72,3.09-.95,6.15-2.02,9.14-3.26,.53-.21,.26-1.05-.29-.92-2.9,.65-5.77,1.45-8.6,2.34,.08-.71,.14-1.42,.19-2.14,1.51-.36,3.01-.8,4.48-1.34,.19-.08,.33-.28,.31-.5-.02-.27-.26-.47-.53-.45-1.4,.15-2.79,.39-4.17,.69,.04-.79,.08-1.58,.12-2.36,.05-.62-.92-.69-.96-.08,0,0-.12,1.33-.25,2.67-1.61,.39-3.2,.86-4.76,1.41-.52,.18-.33,1,.22,.94,1.48-.18,2.95-.43,4.4-.73-.06,.69-.11,1.18-.11,1.18-.01,.36-.06,.72-.1,1.08-2.63,.86-5.24,1.81-7.81,2.83-.54,.21-.26,1.07,.3,.92,2.44-.58,4.85-1.24,7.26-1.95-.12,.63-.28,1.25-.47,1.85-2.61,.94-5.21,1.93-7.79,2.94-.56,.22-.25,1.1,.32,.91,2.31-.71,4.59-1.49,6.87-2.28-1.26,2.84-3.39,5.19-6.56,6.33-.55,.24-.21,1.1,.36,.9,4.37-1.36,6.54-4.25,7.68-7.73,3.48-1.21,6.95-2.43,10.47-3.52,.58-.17,.33-1.08-.25-.93Z"/><path class="cls-1" d="M21.12,23.06c-3.28,.35-7.7-.04-9.97-2.61-.33-.49-1.12-.02-.83,.5,2.18,3.44,7.37,3.93,11.01,3.06,.57-.15,.37-1.05-.21-.94Z"/><path class="cls-1" d="M25.3,4.85c2.37-.12,4.74-.3,7.1-.56,.05,.79,.12,1.58,.18,2.36l-5.14,.68c-.18,.02-.3,.11-.38,.23-.22-.55-1.11-.36-1.06,.25,.17,2.24,.67,4.44,1.37,6.57,.08,.23,.31,.38,.56,.36,.27-.02,.47-.23,.5-.49,.09,.08,.21,.12,.37,.11,1.49-.11,3-.2,4.5-.35,.1,.86,.2,1.72,.31,2.59,.03,.24,.25,.42,.5,.42,.27,0,.48-.23,.47-.5-.04-.88-.09-1.75-.15-2.62,1.89-.24,3.75-.61,5.54-1.29,.25-.1,.39-.36,.33-.63-.04-.16-.14-.29-.28-.36,.17-.08,.3-.24,.31-.45,.07-1.33-.08-2.61-.55-3.86-.17-.55-1.04-.47-1.09,.12-.05,.66-.02,1.31,.08,1.96-1.54,.19-3.08,.36-4.62,.51-.05-.65-.1-1.3-.16-1.95,1.73-.27,3.45-.64,5.14-1.08,.26-.07,.43-.32,.4-.59-.04-.3-.31-.52-.61-.48-1.7,.2-3.39,.46-5.07,.69-.08-.78-.15-1.55-.23-2.33,2.48-.31,4.94-.72,7.36-1.32,.24-.06,.4-.29,.36-.54-.04-.26-.29-.45-.55-.41-2.44,.39-4.88,.68-7.33,.97-.1-.81-.19-1.63-.3-2.44-.07-.59-1-.51-.96,.09,.03,.83,.09,1.66,.13,2.49-2.38,.28-4.76,.55-7.13,.91-.59,.08-.49,1,.1,.96Zm13.72,5.69c.07,.26,.15,.53,.24,.79,.04,.11,.13,.2,.23,.26-1.7,.39-3.42,.6-5.15,.81-.02-.34-.05-.68-.08-1.02,1.6-.18,3.19-.46,4.76-.84Zm-6.01,.95c.04,.35,.07,.71,.11,1.06-1.5,.19-3,.39-4.49,.73-.12,.03-.21,.09-.27,.17-.07-.65-.17-1.3-.28-1.95,1.64,.12,3.29,.11,4.94-.02Zm-.33-3.36c.05,.63,.12,1.25,.18,1.88-1.67,.14-3.34,.27-5.02,.36-.15-.67-.33-1.33-.53-1.98,.05,.02,.1,.04,.17,.04,1.74,.04,3.47-.08,5.2-.3Z"/><path class="cls-1" d="M44.34,15.88c-.04-.26-.29-.45-.55-.41-6.34,1.01-12.52,2.69-18.81,3.9-.59,.11-.45,1.03,.14,.96,5.61-.55,13.3-2.63,18.85-3.9,.24-.06,.41-.29,.37-.54Z"/><path class="cls-1" d="M42.18,13.91c-.19,0-.37,.11-.45,.29-.29,.98,1.69,1.01,2.28,1.26l1.99,.44c.19,.04,.41-.04,.52-.21,.58-1.23-3.54-1.8-4.34-1.78Z"/><path class="cls-1" d="M29.42,20.74c-.05,1.54-.47,2.87-1.04,4.32-.19,.5,.52,.91,.85,.47,1.05-1.33,1.66-3.23,1.15-4.92-.13-.57-.96-.45-.96,.13Z"/><path class="cls-1" d="M40.7,18.82c-.15-.13-.38-.16-.56-.05-.24,.13-.32,.43-.19,.67,.42,.75,1.01,1.41,1.7,1.98,.7,.55,1.53,1.02,2.43,1.16,.2,.03,.41-.06,.51-.25,.13-.24,.04-.53-.2-.66-1.44-.71-2.48-1.79-3.7-2.85Z"/><path class="cls-1" d="M40,21.12c.14,.28,.23,.55,.26,.82,.03,.16,0,.33-.04,.51-1.83,.46-3.62,.94-5.42,1.47-.28,.05-.93,.36-1.19,.29-.45-.81-.95-2.75-1.39-3.77-.08-.24-.33-.39-.58-.33-.26,.06-.42,.33-.35,.59,.25,.99,.5,1.99,.78,2.98,.13,.77,.59,1.88,1.64,1.84,2.54-.62,5.07-1.4,7.55-2.19,.13-.9,.13-1.93-.43-2.69-.31-.51-1.13-.04-.84,.49Z"/><path class="cls-1" d="M33.31,20.43c1.2,.5,2.31,.76,3.42,1.38,.45,.25,.95-.36,.6-.76-.93-1.08-2.45-1.59-3.83-1.58-.51,0-.67,.75-.19,.95Z"/></g></g></svg>